<svg xmlns="http://www.w3.org/2000/svg" viewBox="0 0 64 64">
  <!-- Pan base -->
  <ellipse cx="32" cy="42" rx="24" ry="12" fill="#4A4A4A"/>
  <ellipse cx="32" cy="40" rx="24" ry="12" fill="#6B6B6B"/>
  <ellipse cx="32" cy="38" rx="22" ry="10" fill="#8B8B8B"/>
  
  <!-- Pan handle -->
  <rect x="52" y="36" width="10" height="6" fill="#5C4033" rx="2"/>
  <rect x="54" y="35" width="8" height="2" fill="#4A3228" rx="1"/>
  
  <!-- Eggs in pan -->
  <ellipse cx="24" cy="36" rx="6" ry="4" fill="#FFF8DC"/>
  <ellipse cx="24" cy="35" rx="5" ry="3" fill="#FFFACD"/>
  <ellipse cx="24" cy="34" rx="3" ry="2" fill="#FFD700"/>
  
  <ellipse cx="36" cy="38" rx="5" ry="3.5" fill="#FFF8DC"/>
  <ellipse cx="36" cy="37" rx="4" ry="2.5" fill="#FFFACD"/>
  <ellipse cx="36" cy="36" rx="2.5" ry="1.5" fill="#FFD700"/>
  
  <!-- Tomatoes -->
  <circle cx="28" cy="32" r="4" fill="#E53935"/>
  <circle cx="28" cy="31" r="3.5" fill="#EF5350"/>
  <rect x="27" y="28" width="2" height="2" fill="#4CAF50" rx="1"/>
  
  <!-- Peppers -->
  <path d="M40 30 Q42 28 41 33 Q40 35 38 33 Q37 31 40 30" fill="#43A047"/>
  <path d="M40 30 Q42 28 41 33 Q40 35 38 33 Q37 31 40 30" fill="#66BB6A"/>
  <rect x="39" y="27" width="1.5" height="2" fill="#2E7D32" rx="0.5"/>
  
  <!-- Steam lines -->
  <path d="M20 28 Q21 25 20 22" stroke="#FFFFFF" stroke-width="1.5" fill="none" opacity="0.6" stroke-linecap="round"/>
  <path d="M32 26 Q33 23 32 20" stroke="#FFFFFF" stroke-width="1.5" fill="none" opacity="0.6" stroke-linecap="round"/>
  <path d="M44 28 Q45 25 44 22" stroke="#FFFFFF" stroke-width="1.5" fill="none" opacity="0.6" stroke-linecap="round"/>
</svg>
